<svg xmlns="http://www.w3.org/2000/svg" xmlns:xlink="http://www.w3.org/1999/xlink" width="100" height="100" viewBox="0 0 100 100"><g><g transform="translate(50 50) scale(0.69 0.69) rotate(0) translate(-50 -50)" style="fill:#4e3e2c;"><svg fill="#4e3e2c" xmlns:dc="http://purl.org/dc/elements/1.1/" xmlns:cc="http://creativecommons.org/ns#" xmlns:rdf="http://www.w3.org/1999/02/22-rdf-syntax-ns#" xmlns:svg="http://www.w3.org/2000/svg" xmlns="http://www.w3.org/2000/svg" xmlns:sodipodi="http://sodipodi.sourceforge.net/DTD/sodipodi-0.dtd" xmlns:inkscape="http://www.inkscape.org/namespaces/inkscape" viewBox="0 0 21.166666 21.166667" version="1.1" x="0px" y="0px"><g transform="translate(0,-275.83332)"><path style="" d="m 6.1811567,285.43216 c -0.3418714,5.47169 0.3405788,6.49898 0.3405788,6.49898 2.393875,5.81362 6.4962665,5.81362 8.8900765,0 0,0 0.686005,-1.02729 0.343811,-6.49898 -0.341872,1.36794 -2.053232,3.42117 -4.789043,1.36929 -2.7358109,2.05188 -4.4436812,-10e-4 -4.7856819,-1.36929 z m 3.0758081,3.41981 c 0.3425176,0.001 1.7098742,0 1.7098742,0 0,0 1.368584,0.001 1.709873,0 0.22813,-9e-4 0.107926,0.4834 0,0.68465 -0.193877,0.36255 -0.632042,0.56548 -1.025226,0.68458 -0.436871,0.13249 -0.932488,0.13249 -1.369295,0 -0.3929257,-0.11891 -0.8314775,-0.32248 -1.0252262,-0.68458 -0.1072791,-0.20099 -0.2281296,-0.68555 0,-0.68465 z" fill="#4e3e2c" fill-opacity="1" fill-rule="evenodd" stroke="#4e3e2c" stroke-width="0.17098951" stroke-linecap="round" stroke-linejoin="bevel" stroke-miterlimit="4" stroke-dasharray="none" stroke-opacity="1"></path><path style="" d="m 10.967485,281.32977 c -0.89591,-0.27402 -1.5594893,-0.27143 -1.7098739,0.34187 -3.9070273,-2.97331 -3.2667133,1.02594 -3.0778116,3.07781 -1.0259372,-2.39387 -1.0259372,-3.41981 -1.1809103,-5.12968 0.1551024,-1.36794 1.8648469,-1.02594 2.2068475,-1.36794 0.6839366,-0.68394 1.0259372,-1.70988 1.7098738,-1.70988 -0.3418714,1.36794 1.3679375,0.34188 2.0518745,0.34188 4.103749,0.34187 3.419812,2.0518 5.129686,3.07781 0.116327,1.40102 0.144116,2.49456 -0.341872,4.78768 -0.683936,-6.83962 -3.378257,-3.57078 -4.787685,-3.41981 z" fill="#4e3e2c" fill-opacity="1" fill-rule="evenodd" stroke="#4e3e2c" stroke-width="0.17098951" stroke-linecap="butt" stroke-linejoin="miter" stroke-miterlimit="4" stroke-dasharray="none" stroke-opacity="1"></path></g></svg></g></g></svg>