<svg xmlns:dc="http://purl.org/dc/elements/1.1/" xmlns:cc="http://creativecommons.org/ns#" xmlns:rdf="http://www.w3.org/1999/02/22-rdf-syntax-ns#" xmlns:svg="http://www.w3.org/2000/svg" xmlns="http://www.w3.org/2000/svg" viewBox="0 0 21.166666 21.166667" version="1.1" x="0px" y="0px"><path d="m 10.583333,18.917708 c -0.7937495,0 -1.5874998,0.06615 -2.1828123,0.181901 -0.2976562,0.05788 -0.5457031,0.128158 -0.7193359,0.208773 -0.1736328,0.08061 -0.2728516,0.171564 -0.2728516,0.270784 0,0.396875 1.5875,0.661459 3.1749998,0.661459 1.5875,0 3.175,-0.264589 3.175,-0.661459 0,-0.09922 -0.09922,-0.190184 -0.272851,-0.270784 -0.173633,-0.08061 -0.421679,-0.150873 -0.719336,-0.208773 -0.595312,-0.1158 -1.389063,-0.181901 -2.182813,-0.181901 z" style="" fill="#000000" fill-opacity="1" fill-rule="evenodd" stroke="#000000" stroke-width="0.52916664" stroke-linecap="round" stroke-linejoin="round" stroke-miterlimit="4" stroke-dasharray="none" stroke-opacity="1"></path><path d="M 9.1281249,7.4083332 8.7364175,7.9871093 C 8.0868911,8.3310393 7.447418,8.7524581 7.4083332,10.186458 v 9.392708 c 0,0.396875 1.5875,0.661459 3.1749998,0.661459 1.5875,0 3.175,-0.264584 3.175,-0.661459 V 10.186458 C 13.719248,8.7524581 13.079775,8.3310393 12.430249,7.9871093 L 12.038542,7.4083332 h -1.455209 z" style="" fill="none" stroke="#000000" stroke-width="0.52916664" stroke-linecap="round" stroke-linejoin="round" stroke-miterlimit="4" stroke-dasharray="none" stroke-opacity="1"></path><path d="m 10.583333,0.66145832 c -0.529166,0 -0.7937498,0.26457833 -0.9260415,0.66145828 -0.1322916,0.26458 0.1322917,0.6614533 -0.1322916,2.6458334 -0.2645833,0 -0.5291667,3.4e-6 -0.6614583,0.2645833 L 8.7312499,7.1437499 c 0,0.2645799 0.1322917,0.2645833 0.396875,0.2645833 h 1.4552081 1.455209 c 0.264583,0 0.396875,-3.4e-6 0.396875,-0.2645833 L 12.303125,4.2333333 C 12.170834,3.9687534 11.90625,3.96875 11.641667,3.96875 c -0.264584,-1.9843801 0,-2.3812534 -0.132292,-2.6458334 C 11.377084,0.92603665 11.112499,0.66145832 10.583333,0.66145832 Z" style="paint-order:stroke fill markers;" fill="#000000" fill-opacity="1" fill-rule="evenodd" stroke="#000000" stroke-width="0.52916664" stroke-linecap="round" stroke-linejoin="round" stroke-miterlimit="4" stroke-dasharray="none" stroke-opacity="1"></path><path d="m 9.3354373,13.229167 c -0.096941,1.551067 0.096563,1.842271 0.096563,1.842271 0.6785997,1.648008 1.8415207,1.648008 2.5201057,0 0,0 0.194457,-0.291204 0.09751,-1.842271 -0.09694,0.387767 -0.58203,0.969795 -1.357563,0.388145 -0.7755328,0.58165 -1.2596732,-3.8e-4 -1.3566157,-0.388145 z m 0.8719067,0.969417 c 0.09713,3.78e-4 0.484709,0 0.484709,0 0,0 0.387956,3.78e-4 0.484708,0 0.06469,-2.53e-4 0.0305,0.137024 0,0.194072 -0.05493,0.102729 -0.179154,0.160274 -0.290635,0.194073 -0.123817,0.03754 -0.264329,0.03754 -0.388146,0 -0.111481,-0.0338 -0.235706,-0.09134 -0.290636,-0.194073 -0.0305,-0.05705 -0.06469,-0.194324 0,-0.194072 z" style="" fill="#000000" fill-opacity="1" fill-rule="evenodd" stroke="#000000" stroke-width="0.04847085" stroke-linecap="round" stroke-linejoin="bevel" stroke-miterlimit="4" stroke-dasharray="none" stroke-opacity="1"></path><path d="m 10.692243,12.066245 c -0.253972,-0.07769 -0.442089,-0.07698 -0.484708,0.09695 C 9.0999875,11.320348 9.2815109,12.454018 9.3350586,13.035668 9.0442335,12.35707 9.0442335,12.066245 9.0003069,11.581537 9.0442339,11.19377 9.5289421,11.290712 9.6258837,11.19377 c 0.1938837,-0.193883 0.290826,-0.484708 0.4847083,-0.484708 -0.09695,0.387767 0.387768,0.09693 0.581651,0.09695 1.1633,0.09693 0.969417,0.58164 1.454125,0.872474 0.0329,0.397152 0.04089,0.707151 -0.09695,1.357185 -0.193877,-1.938844 -0.957649,-1.012225 -1.357177,-0.969418 z" style="" fill="#000000" fill-opacity="1" fill-rule="evenodd" stroke="#000000" stroke-width="0.04847084" stroke-linecap="butt" stroke-linejoin="miter" stroke-miterlimit="4" stroke-dasharray="none" stroke-opacity="1"></path></svg>