<svg xmlns:dc="http://purl.org/dc/elements/1.1/" xmlns:cc="http://creativecommons.org/ns#" xmlns:rdf="http://www.w3.org/1999/02/22-rdf-syntax-ns#" xmlns:svg="http://www.w3.org/2000/svg" xmlns="http://www.w3.org/2000/svg" xmlns:sodipodi="http://sodipodi.sourceforge.net/DTD/sodipodi-0.dtd" xmlns:inkscape="http://www.inkscape.org/namespaces/inkscape" viewBox="0 0 26.458333 26.458334" version="1.1" x="0px" y="0px"><g transform="translate(0,-270.54165)"><path style="" d="m 4.0650158,271.46761 c 11.3257002,10.29611 11.1712592,10.14167 21.4673642,21.46737 0.242652,0.26696 0.456535,0.61744 0.463317,0.97812 0.0073,0.392 -0.205503,0.78574 -0.463324,1.0811 -0.658003,0.75382 -2.574018,1.54441 -2.574018,1.54441 l 1.904771,-1.90477 c -0.112346,-0.12796 -0.172716,-0.20481 -0.285325,-0.33241 -2.682101,2.47645 -2.775051,2.36307 -0.291036,-0.32801 -0.09731,-0.10901 -0.19481,-0.21777 -0.292488,-0.32634 -3.072307,2.70091 -2.614035,2.07147 -0.288818,-0.31897 -0.10038,-0.1101 -0.200748,-0.22022 -0.301493,-0.32991 -2.810211,2.60657 -2.812924,2.40702 -0.291219,-0.31573 -0.1007,-0.10853 -0.201388,-0.21695 -0.30255,-0.32493 -3.580613,3.16469 -2.186059,1.6536 -0.299968,-0.31943 l -0.296848,-0.31436 c -3.173367,2.94952 -2.560392,2.13381 -0.30324,-0.31686 l -0.299531,-0.3112 c -3.017027,2.79787 -2.762202,2.33669 -0.30679,-0.31652 -0.101596,-0.10362 -0.202238,-0.20808 -0.30383,-0.31161 -2.718595,2.5164 -3.068572,2.66034 -0.307716,-0.31161 -0.103277,-0.10458 -0.206831,-0.20878 -0.310723,-0.31267 -2.622459,2.42928 -3.155469,2.76147 -0.303362,-0.30392 -0.104656,-0.10457 -0.209464,-0.20884 -0.314439,-0.313 -3.103606,2.89106 -2.690269,2.27391 -0.309614,-0.30573 -0.102595,-0.10119 -0.205724,-0.20183 -0.308579,-0.30274 -2.831681,2.62268 -2.957138,2.54036 -0.315544,-0.30775 -0.104223,-0.10222 -0.209394,-0.20356 -0.313595,-0.30583 -3.11302,2.89648 -2.647558,2.22806 -0.312552,-0.30282 l -0.311504,-0.29981 c -2.658729,2.4539 -3.071728,2.65943 -0.318539,-0.30493 -0.10584,-0.10191 -0.212647,-0.20292 -0.318479,-0.30486 -2.670044,2.47438 -3.013816,2.61512 -0.313453,-0.29789 l -0.320499,-0.30299 c -2.585541,2.39019 -3.04977,2.65306 -0.312327,-0.29481 -0.105482,-0.0995 -0.21097,-0.19929 -0.317423,-0.29797 -3.014963,2.78737 -2.599976,2.16651 -0.323889,-0.30365 -0.104164,-0.0984 -0.209295,-0.19568 -0.313841,-0.29361 -2.728837,2.51187 -2.832047,2.40859 -0.320533,-0.29894 -0.108081,-0.10026 -0.216155,-0.20058 -0.323744,-0.30137 -3.050419,2.82617 -2.437949,2.01669 -0.321096,-0.29833 -0.105829,-0.0981 -0.211651,-0.19608 -0.317281,-0.29432 -2.856547,2.6363 -2.583741,2.15818 -0.322577,-0.29884 l -0.160511,-0.14883 c -0.03323,-0.0353 -0.06548,-0.0713 -0.09869,-0.1065 -3.00919,2.85615 -2.273789,1.98677 -0.199341,-0.2149 -0.06479,-0.0706 -0.130552,-0.14026 -0.195335,-0.21091 -2.410503,2.27557 -2.917475,2.64505 -0.199355,-0.2149 -0.06613,-0.072 -0.133236,-0.14298 -0.199359,-0.21492 -2.7307194,2.59306 -2.648413,2.37274 -0.199219,-0.21481 -0.06615,-0.072 -0.13329,-0.143 -0.19944,-0.21499 -2.9882076,2.84723 -2.4184978,2.1418 -0.198199,-0.21183 -0.06579,-0.0697 -0.130607,-0.14033 -0.196404,-0.21002 -2.5849552,2.4496 -2.8685241,2.59533 -0.200287,-0.2139 -0.06711,-0.071 -0.133249,-0.14297 -0.200361,-0.21397 -3.2373941,3.08462 -2.2203495,1.93459 -0.200239,-0.21386 l -0.199395,-0.21108 c -2.3851994,2.26141 -3.108752,2.8519 -0.199248,-0.21093 l -0.198251,-0.20992 c -2.7154126,2.57755 -2.8428309,2.56758 -0.200248,-0.21192 l -0.202365,-0.21404 c -2.0464341,1.93 -3.441747,3.20174 -0.202285,-0.212 -0.0654,-0.0694 -0.13175,-0.1376 -0.1971497,-0.20689 -4.3073234,4.05091 -0.8644294,0.57648 -0.2022552,-0.21197 -0.066739,-0.0686 -0.1325198,-0.13836 -0.1992746,-0.20707 -1.652218,1.54009 -3.7915218,3.62373 -0.2032554,-0.21104 -0.068068,-0.0701 -0.1351615,-0.141 -0.2032411,-0.21103 -1.9715678,1.8525 -3.56493,3.32326 -0.2021917,-0.20803 l -0.2062181,-0.21205 c -1.8391976,1.72538 -3.6694434,3.4417 -0.1991164,-0.20495 -0.068286,-0.0698 -0.1361675,-0.14005 -0.2052341,-0.20911 -3.7219147,3.53723 -1.8426951,1.54681 -0.2031478,-0.20706 -0.068522,-0.0697 -0.137129,-0.13903 -0.2061608,-0.2081 -3.0112477,2.91597 -2.6859155,2.34378 -0.2046949,-0.20649 -0.068013,-0.0685 -0.1361123,-0.1369 -0.2042874,-0.20523 -2.1044415,2.01919 -3.4926746,3.21824 -0.2047148,-0.20482 -0.070209,-0.0701 -0.1404963,-0.14008 -0.2108786,-0.21004 -2.4354355,2.31199 -3.2237361,2.96774 -0.2056328,-0.20387 -0.068615,-0.0678 -0.1373163,-0.13563 -0.2057334,-0.20378 -2.9145863,2.77561 -2.7773935,2.49834 -0.2097492,-0.20586 -0.068326,-0.0675 -0.1378356,-0.13593 -0.2060175,-0.20211 -2.9467656,2.80177 -2.735871,2.45858 -0.207046,-0.20122 -0.069015,-0.0674 -0.1388666,-0.13498 -0.2069745,-0.20114 -3.3379233,3.17289 -2.3042817,2.00438 -0.2161026,-0.20832 -0.068523,-0.0666 -0.1391259,-0.1333 -0.2070184,-0.19923 -2.6458582,2.52469 -2.9894308,2.74346 -0.2110163,-0.2013 -0.070167,-0.0664 -0.1395655,-0.13179 -0.2111104,-0.19943 -1.4280413,1.31399 -3.889537,3.67812 -0.2117572,-0.20008 -0.070181,-0.0664 -0.1424549,-0.13277 -0.212043,-0.19842 -2.3768245,2.24735 -3.1712961,2.90472 -0.2148108,-0.19925 -0.073364,-0.0676 -0.1420318,-0.13236 -0.212941,-0.19738 -3.36550104,3.20293 -2.1242799,1.82292 -0.2138483,-0.19632 -0.072264,-0.0665 -0.1438192,-0.13209 -0.2140719,-0.19657 -2.91205979,2.76357 -2.5812631,2.2932 -0.2187663,-0.19853 -0.072328,-0.0646 -0.1446148,-0.13099 -0.2160937,-0.1947 -3.09183453,2.93907 -2.32610281,2.03775 -0.2180042,-0.19542 -0.071566,-0.0638 -0.1442124,-0.12864 -0.2152347,-0.19171 -2.77225595,2.62709 -2.60407213,2.31963 -0.2198307,-0.19433 -0.134588,-0.11704 -0.1056685,-0.0757 -0.2273326,-0.18628 l -1.9047717,1.90476 c 0,0 0.7905933,-1.91601 1.5444083,-2.57401 0.2953651,-0.25782 0.6890953,-0.47067 1.0810902,-0.46331 0.3607075,0.007 0.7071937,0.22 0.9781359,0.46331 z" fill="#000000" fill-opacity="1" fill-rule="evenodd" stroke="#000000" stroke-width="0.2" stroke-linecap="round" stroke-linejoin="round" stroke-miterlimit="4" stroke-dasharray="none" stroke-opacity="1"></path></g></svg>