<svg xmlns:dc="http://purl.org/dc/elements/1.1/" xmlns:cc="http://creativecommons.org/ns#" xmlns:rdf="http://www.w3.org/1999/02/22-rdf-syntax-ns#" xmlns:svg="http://www.w3.org/2000/svg" xmlns="http://www.w3.org/2000/svg" viewBox="0 0 100 100" version="1.1" x="0px" y="0px"><path d="m 91.848342,94.833477 c 1.96248,0.362792 3.10591,-0.606593 4.31421,-1.750364 0.84195,-2.637541 0.94187,-5.197426 -0.12733,-7.540254 L 44.411872,32.342202 c -0.82158,-0.002 -1.67964,-0.203673 -2.72531,-1.436899 -2.43791,-3.590264 -6.02217,-6.617479 -10.61411,-9.149279 -0.46774,-0.5777 -0.34288,-0.99718 -0.40807,-1.467522 1.16246,-1.284257 5.90557,-3.562198 6.60048,-6.03998 l -1.45213,-7.7923318 c -0.23745,-0.49675 -1.79251,-1.22897 -3.34161,-1.363514 L 3.9430715,28.02947 c -0.49078,1.163449 -0.88023,2.428968 -0.7232,4.244905 l 0.94331,6.117239 c 0.60228,1.09917 0.91232,1.393819 2.31703,0.990404 L 22.096002,27.135656 c 6.07715,0.225229 10.12378,5.463507 13.82052,11.565885 0.11325,1.328758 0.54506,2.374036 1.1747,3.243157 l 52.48904,52.038952 c 0.86882,0.459822 1.61392,0.728895 2.26808,0.849827 z M 5.4523715,37.817049 5.2637115,36.593602 35.212442,12.310443 l 0.18866,1.223449 z m -0.37732,-2.446894 -0.18867,-1.223449 29.9487405,-24.2831568 0.18866,1.2234468 z m -0.37733,-2.446896 -0.18866,-1.223447 29.9487305,-24.2831588 0.18866,1.223447 z" style="" fill="#000000" fill-opacity="1" fill-rule="evenodd" stroke="#000000" stroke-width="0.19573052px" stroke-linecap="butt" stroke-linejoin="miter" stroke-opacity="1"></path></svg>