<svg xmlns:dc="http://purl.org/dc/elements/1.1/" xmlns:cc="http://creativecommons.org/ns#" xmlns:rdf="http://www.w3.org/1999/02/22-rdf-syntax-ns#" xmlns:svg="http://www.w3.org/2000/svg" xmlns="http://www.w3.org/2000/svg" xmlns:sodipodi="http://sodipodi.sourceforge.net/DTD/sodipodi-0.dtd" xmlns:inkscape="http://www.inkscape.org/namespaces/inkscape" version="1.1" viewBox="0 0 26.458333 26.458334" x="0px" y="0px"><path style="" d="m 8.2353984,1.02355 c 9.0470246,8.22457 8.9236556,8.1012 17.1482336,17.14823 0.19383,0.21325 0.364681,0.49322 0.3701,0.78134 0.0057,0.31312 -0.164156,0.62764 -0.370105,0.86358 -0.525616,0.60215 -2.056138,1.23368 -2.056138,1.23368 l 1.521541,-1.52154 c -0.08974,-0.10218 -0.137968,-0.16359 -0.22792,-0.26552 -2.142475,1.97819 -2.216724,1.88763 -0.232481,-0.26202 -0.07773,-0.0871 -0.155615,-0.17397 -0.233641,-0.26069 -2.454174,2.1575 -2.088102,1.65471 -0.230708,-0.2548 -0.08019,-0.0878 -0.160359,-0.17592 -0.240836,-0.26353 -2.24481,2.08215 -2.246977,1.92274 -0.232627,-0.2522 -0.08044,-0.0867 -0.16087,-0.17331 -0.241678,-0.25955 -2.860211,2.52796 -1.746234,1.3209 -0.239616,-0.25517 L 22.7324,17.20425 c -2.534901,2.35609 -2.045254,1.7045 -0.24223,-0.25312 l -0.239268,-0.24858 c -2.410014,2.23494 -2.206459,1.86656 -0.245065,-0.25283 -0.08115,-0.0826 -0.161549,-0.16622 -0.2427,-0.24891 -2.171627,2.01011 -2.451191,2.12508 -0.245805,-0.24892 -0.08249,-0.0836 -0.165219,-0.16678 -0.248208,-0.24977 -2.094832,1.94051 -2.520603,2.20587 -0.242327,-0.24276 -0.08359,-0.0836 -0.16732,-0.16683 -0.251175,-0.25003 -2.479175,2.30937 -2.149,1.81639 -0.247322,-0.24424 -0.08195,-0.0808 -0.164331,-0.16121 -0.246493,-0.24182 -2.26196,2.09502 -2.362177,2.02925 -0.252058,-0.24582 -0.08325,-0.0818 -0.167266,-0.1626 -0.250502,-0.2443 -2.486695,2.31372 -2.114882,1.77978 -0.249668,-0.2419 L 19.28075,13.75177 c -2.123806,1.96019 -2.453712,2.12435 -0.254453,-0.24359 -0.08454,-0.0816 -0.169862,-0.1621 -0.254403,-0.24353 -2.132844,1.97655 -2.407451,2.08898 -0.250386,-0.23794 l -0.256016,-0.24204 c -2.065343,1.9093 -2.436171,2.11928 -0.249489,-0.2355 -0.08426,-0.0794 -0.168523,-0.15918 -0.25356,-0.23801 -2.408366,2.22655 -2.076872,1.73062 -0.258723,-0.24258 -0.08321,-0.0786 -0.167186,-0.15629 -0.250698,-0.23453 -2.179808,2.0065 -2.262252,1.92401 -0.256043,-0.23878 -0.08632,-0.08 -0.172666,-0.16022 -0.258608,-0.24074 -2.43669,2.25757 -1.947447,1.61095 -0.256493,-0.23831 -0.08453,-0.0784 -0.169068,-0.15662 -0.253445,-0.23511 -2.281824,2.10589 -2.063905,1.72398 -0.257677,-0.23871 l -0.128217,-0.11888 c -0.02656,-0.0283 -0.0523,-0.0569 -0.07884,-0.0851 -2.403755,2.28152 -1.816311,1.58707 -0.159233,-0.17165 -0.05175,-0.0564 -0.104275,-0.11203 -0.156035,-0.16848 C 13.52291,11.91604 13.117937,12.21118 15.289185,9.92663 15.236355,9.86913 15.182751,9.81241 15.129938,9.75495 12.948625,11.8263 13.014373,11.65031 14.9708,9.58337 14.91796,9.52587 14.864322,9.46913 14.811486,9.41163 12.424492,11.68601 12.879578,11.12251 14.653165,9.24241 14.600605,9.18681 14.548824,9.13032 14.496276,9.07464 12.431402,11.0314 12.204883,11.14782 14.336285,8.90379 14.282685,8.84709 14.22984,8.78957 14.176235,8.73286 11.59019,11.19687 12.402611,10.27822 14.016284,8.56204 L 13.857008,8.39343 c -1.905309,1.80642 -2.483288,2.2781 -0.159162,-0.16849 l -0.158363,-0.1677 c -2.169085,2.05897 -2.270868,2.051 -0.159961,-0.16927 L 13.217873,7.71698 C 11.583171,9.25868 10.468589,10.27456 13.056286,7.54763 13.004046,7.49233 12.951047,7.43772 12.898802,7.38238 9.4580929,10.61827 12.208291,7.84288 12.737242,7.21305 12.683922,7.15825 12.631377,7.10252 12.578059,7.04765 11.25826,8.27788 9.549374,9.9423 12.415696,6.87906 12.361316,6.82296 12.307728,6.76642 12.253349,6.71049 10.67845,8.19027 9.4056637,9.36512 12.091836,6.54432 L 11.927108,6.37492 C 10.457949,7.75317 8.9959393,9.12417 11.768053,6.21121 11.713503,6.15561 11.659284,6.09934 11.604111,6.04417 8.6310279,8.86973 10.132157,7.27978 11.441835,5.87877 11.387105,5.82317 11.332299,5.76772 11.277152,5.71254 8.8717548,8.04183 9.1316316,7.58478 11.113642,5.5476 11.059322,5.4928 11.004918,5.4382 10.950456,5.38367 9.269419,6.99661 8.1604916,7.95441 10.78693,5.22004 10.73083,5.16404 10.674701,5.10815 10.61848,5.05226 8.6730413,6.8991 8.0433428,7.42291 10.454216,4.88941 10.399396,4.83521 10.344529,4.78111 10.289876,4.72664 7.9616915,6.94381 8.0712817,6.72234 10.122327,4.56219 10.067767,4.50819 10.012225,4.45355 9.9577611,4.40073 7.60387,6.63882 7.7723338,6.36466 9.7923716,4.24001 9.7372276,4.18621 9.6814445,4.13214 9.6270389,4.07934 6.96069,6.61386 7.7863674,5.68044 9.4544158,3.91293 9.3996828,3.85963 9.3432805,3.80637 9.2890475,3.75379 7.1755237,5.77052 6.9010759,5.94527 9.1204874,3.59299 9.0644324,3.53999 9.0090018,3.48763 8.9518519,3.43368 7.8111247,4.48331 5.8448705,6.37178 8.782698,3.27386 8.726643,3.22086 8.668905,3.16774 8.6133171,3.11536 6.7146988,4.91055 6.0800707,5.43567 8.441726,2.95619 8.383126,2.90209 8.3282701,2.8504 8.271627,2.79852 5.5832493,5.35705 6.5747426,4.25468 8.100804,2.6417 8.043083,2.5887 7.9859208,2.53624 7.9298024,2.48469 5.6036355,4.69224 5.867877,4.31651 7.755051,2.32609 7.697274,2.27449 7.639532,2.2214 7.5824341,2.17057 5.1126622,4.51831 5.7243326,3.79833 7.4082914,2.01446 7.3511214,1.96336 7.2930943,1.91177 7.2363606,1.86133 5.0218699,3.95985 5.1562153,3.71425 7.0607593,1.70609 6.95325,1.61249 6.9763513,1.64559 6.8791647,1.5573 L 5.3576245,3.07883 c 0,0 0.6315295,-1.53051 1.2336804,-2.05612 0.2359391,-0.20596 0.5504525,-0.37599 0.86358,-0.3701 0.2881346,0.005 0.56491,0.17573 0.7813398,0.3701 z" fill="#000000" fill-opacity="1" fill-rule="evenodd" stroke="#000000" stroke-width="0.15976098" stroke-linecap="round" stroke-linejoin="round" stroke-miterlimit="4" stroke-dasharray="none" stroke-opacity="1"></path><path style="" d="m 4.3120841,10.257832 c 0.5216835,0.448382 1.6243935,1.600954 2.2582152,1.782807 0.6338225,0.181853 0.6797326,-0.01081 1.0696819,-0.118858 M 0.62762639,5.6225464 7.6399812,11.921781 9.6604896,13.229169 M 8.9473691,13.942289 9.6604896,13.229169 1.10304,5.6225464 c 0,0 -0.36335771,-0.1120511 -0.47541361,0 -0.1120559,0.1120591 0,0.4754184 0,0.4754184 L 8.2342479,14.655417 Z" fill="none" stroke="#000000" stroke-width="0.21340945" stroke-linecap="butt" stroke-linejoin="miter" stroke-miterlimit="4" stroke-dasharray="none" stroke-opacity="1"></path><path style="" d="M 19.049912,20.241532 C 17.980231,19.171844 16.672843,19.766113 16.078575,19.647262 14.812043,19.01214 13.226092,16.794776 13.226092,16.794776 L 9.1850743,12.753759 c -0.2377052,-0.237709 -0.8319726,-0.594269 -1.4262409,0 -0.5942666,0.594269 -0.237706,1.18853 0,1.426239 l 4.0489096,4.033129 c 0.946434,0.95737 2.135943,2.990203 1.893763,3.811204 -0.594268,0.83197 -0.713122,1.426239 -0.356561,2.495918 0.356561,1.069688 2.139362,2.377077 2.971336,0.35656 l 0.118854,-0.35656 c 0.126908,-0.330281 0.169371,-0.769572 0.594267,-0.83197 l -0.35656,-0.35656 0.118854,-0.118858 C 16.91055,23.09401 16.672843,22.856301 16.553989,22.97516 l -0.118854,0.11885 -0.35656,-0.35656 c -0.722296,-0.729178 -1.069681,-0.83197 -1.545094,-1.307388 -1.307759,-1.481733 -1.901655,-3.327897 -2.027938,-3.914738 0.280142,-0.07663 0.691988,0.04178 1.552523,0.82455 l 1.782803,1.54509 c 0.237706,0.594269 0.297133,1.069687 0.326846,1.455962 0.02971,0.386266 0.02971,0.683405 0.148567,0.921114 l 0.831974,0.83197 c 0.475414,0.237709 1.609114,0.488977 2.139363,0.237709 l 0.237706,-0.237709 0.408095,0.408093 c 0,0 0.07475,0.297598 0.13046,0.241887 l 0.222851,-0.222852 c 0.04828,-0.04831 -0.234457,-0.137886 -0.234457,-0.137886 l -0.408095,-0.408092 0.237707,-0.23771 c 0.118853,-1.069679 0.237707,-1.426239 -0.831974,-2.495918 z m -0.07429,0.326845 a 1.8489252,1.3446738 45 0 1 0.356561,2.258217 1.8489252,1.3446738 45 0 1 -2.258216,-0.356568 1.8489252,1.3446738 45 0 1 -0.356561,-2.258209 1.8489252,1.3446738 45 0 1 2.258216,0.35656 z M 8.7096607,12.991468 c 0.1969234,0.19692 0.1969234,0.5162 0,0.71312 -0.1969226,0.19692 -0.5161979,0.19692 -0.7131205,0 -0.1969233,-0.19692 -0.1969233,-0.5162 0,-0.71312 0.1969226,-0.196928 0.5161979,-0.196928 0.7131205,0 z m 0.1188538,0.35656 H 7.8776864 Z m 6.6205085,9.232501 a 1.8701189,1.3008571 70 0 1 0.539019,0.878865 1.8701189,1.3008571 70 0 1 -0.58266,2.202039 1.8701189,1.3008571 70 0 1 -1.861728,-1.312035 1.8701189,1.3008571 70 0 1 0.582661,-2.202039 1.8701189,1.3008571 70 0 1 1.322708,0.43317 z" fill="#000000" fill-opacity="1" fill-rule="evenodd" stroke="#000000" stroke-width="0.21340945" stroke-linecap="round" stroke-linejoin="round" stroke-miterlimit="4" stroke-dasharray="none" stroke-opacity="1"></path></svg>