<svg xmlns:dc="http://purl.org/dc/elements/1.1/" xmlns:cc="http://creativecommons.org/ns#" xmlns:rdf="http://www.w3.org/1999/02/22-rdf-syntax-ns#" xmlns:svg="http://www.w3.org/2000/svg" xmlns="http://www.w3.org/2000/svg" xmlns:sodipodi="http://sodipodi.sourceforge.net/DTD/sodipodi-0.dtd" xmlns:inkscape="http://www.inkscape.org/namespaces/inkscape" version="1.1" viewBox="0 0 26.458333 26.458333" x="0px" y="0px"><path style="" d="M 5.2583725,6.4082471 C 5.9051521,6.9641452 7.2722828,8.3930925 8.0580902,8.6185504 8.843898,8.8440083 8.9008171,8.6052048 9.3842725,8.471197 M 0.69041189,0.66145795 9.3842725,8.471197 11.889283,10.092086 M 11.005162,10.976208 11.889283,10.092086 1.2798263,0.66145795 c 0,0 -0.45048812,-0.13892629 -0.58941441,0 -0.13892629,0.1389263 1.1e-7,0.58941425 1.1e-7,0.58941425 L 10.12104,11.860329 Z" fill="none" stroke="#000000" stroke-width="0.26458333" stroke-linecap="butt" stroke-linejoin="miter" stroke-miterlimit="4" stroke-dasharray="none" stroke-opacity="1"></path><path style="" d="M 23.530213,18.785948 C 22.204031,17.459766 20.583142,18.196533 19.846374,18.04918 18.276137,17.261759 16.309888,14.512694 16.309888,14.512694 L 11.299867,9.5026734 c -0.294705,-0.2947086 -1.031473,-0.7367693 -1.7682424,0 -0.7367663,0.7367666 -0.2947056,1.4735346 0,1.7682426 l 5.0198054,5.000237 c 1.173382,1.186944 2.648126,3.707229 2.347872,4.725099 -0.736768,1.031475 -0.884122,1.768243 -0.442061,3.094425 0.442061,1.326182 2.652364,2.947071 3.683839,0.44206 l 0.147354,-0.44206 c 0.157339,-0.409481 0.209985,-0.954116 0.736767,-1.031475 l -0.44206,-0.442061 0.147354,-0.147354 c 0.147354,-0.147354 -0.147353,-0.442061 -0.294707,-0.294707 l -0.147354,0.147353 -0.44206,-0.442061 c -0.895497,-0.904025 -1.326182,-1.031474 -1.915596,-1.620889 -1.621348,-1.837042 -2.357656,-4.125901 -2.514221,-4.853458 0.347318,-0.09497 0.857922,0.05183 1.924806,1.022266 l 2.210304,1.915596 c 0.294707,0.736768 0.368384,1.326182 0.405222,1.805081 0.03684,0.478899 0.03684,0.847283 0.184192,1.14199 l 1.031475,1.031475 c 0.589414,0.294707 1.994966,0.60623 2.652364,0.294707 l 0.294707,-0.294707 0.505952,0.505952 c 0,0 0.09267,0.36896 0.161744,0.299888 l 0.276288,-0.276288 c 0.05986,-0.05986 -0.290678,-0.170953 -0.290678,-0.170953 l -0.505952,-0.505952 0.294707,-0.294708 c 0.147353,-1.326182 0.294707,-1.768242 -1.031475,-3.094424 z m -0.0921,0.405222 a 2.2922826,1.6671157 45 0 1 0.442061,2.799718 2.2922826,1.6671157 45 0 1 -2.799718,-0.442061 2.2922826,1.6671157 45 0 1 -0.442061,-2.799718 2.2922826,1.6671157 45 0 1 2.799718,0.442061 z M 10.710453,9.7973805 c 0.244144,0.2441435 0.244144,0.6399785 0,0.8841215 -0.244143,0.244143 -0.639978,0.244143 -0.8841213,0 -0.2441434,-0.244144 -0.2441434,-0.639978 0,-0.8841215 0.2441433,-0.2441434 0.6399783,-0.2441434 0.8841213,0 z m 0.147354,0.4420605 H 9.6789782 Z M 19.06586,21.68582 a 2.3185584,1.6127921 70 0 1 0.668272,1.08961 2.3185584,1.6127921 70 0 1 -0.722378,2.73007 2.3185584,1.6127921 70 0 1 -2.308155,-1.626645 2.3185584,1.6127921 70 0 1 0.722378,-2.73007 2.3185584,1.6127921 70 0 1 1.639883,0.537035 z" fill="#000000" fill-opacity="1" fill-rule="evenodd" stroke="#000000" stroke-width="0.26458333" stroke-linecap="round" stroke-linejoin="round" stroke-miterlimit="4" stroke-dasharray="none" stroke-opacity="1"></path></svg>