<svg xmlns:dc="http://purl.org/dc/elements/1.1/" xmlns:cc="http://creativecommons.org/ns#" xmlns:rdf="http://www.w3.org/1999/02/22-rdf-syntax-ns#" xmlns:svg="http://www.w3.org/2000/svg" xmlns="http://www.w3.org/2000/svg" viewBox="0 0 80 100" version="1.1" x="0px" y="0px"><path d="m 9.6182512,95.013917 6.0888608,2.502271 C 30.061545,89.69516 44.314098,82.096768 70.381752,48.680187 l -1.167726,-3.58659 -3.836822,-0.375341 C 54.973445,54.782188 42.025452,69.885078 10.263724,87.544353 Z" style="" fill="#000000" fill-opacity="1" fill-rule="evenodd" stroke="#000000" stroke-width="1.20000005" stroke-linecap="round" stroke-linejoin="round" stroke-miterlimit="4" stroke-dasharray="none" stroke-opacity="1"></path><path d="M 9.0525101,10.100539 16.911596,2.6257893 40.22088,26.027866 c 10.075588,7.471998 18.652897,15.838922 23.243981,26.586824 2.575333,3.975781 4.850666,4.89017 7.124977,5.794117 0.670048,0.869327 0.274501,1.203207 -0.141844,1.526637 -3.626717,0.480186 -6.607581,-3.309345 -9.757958,-5.910765 l -9.476517,-9.632442 c -0.529744,-3.806388 -1.454066,-7.015667 -7.502188,-8.891276 -3.208615,0.248195 -6.402464,0.709016 -9.75874,-1.169481 z" style="" fill="none" stroke="#000000" stroke-width="1.20000005" stroke-linecap="round" stroke-linejoin="round" stroke-miterlimit="4" stroke-dasharray="none" stroke-opacity="1"></path></svg>